# xmcd
#
# Track frame offsets:
#	150
#	14375
#	27236
#	40387
#	60216
#	71202
#	86384
#	97343
#	110358
#	113404
#	126822
#	141528
#	153770
#	167898
#	171305
#	183859
#	196196
#	206802
#	223536
#	236547
#	249952
#	255571
#
# Disc length: 3507 seconds
#
# Revision: 0
# Processed by: cddbd v1.5.1PL0 Copyright (c) Steve Scherf et al.
# Submitted via: audiograbber 1.83.01
#
DISCID=300db116
DTITLE=de pompers - van beersterkoele noar daarde diek
DYEAR=1900
DGENRE=Folk-Rock
TTITLE0=wij zijn de pompers
TTITLE1=waark
TTITLE2=blues veur jampie
TTITLE3=ik proat grunnegs
TTITLE4=daarde diek
TTITLE5=verveling
TTITLE6=ettie
TTITLE7=recht op waark
TTITLE8=dildo
TTITLE9=lekker wiefke
TTITLE10=loss
TTITLE11=weekend
TTITLE12=draai je om
TTITLE13=doeda
TTITLE14=de wereld vergait
TTITLE15=smokje op dien
TTITLE16=hait in de broek
TTITLE17=beersterkoele
TTITLE18=reegn
TTITLE19=aal wat nait ken
TTITLE20=18 jaar
TTITLE21=pompers mot'n d'r wez'n
EXTD=
EXTT0=
EXTT1=
EXTT2=
EXTT3=
EXTT4=
EXTT5=
EXTT6=
EXTT7=
EXTT8=
EXTT9=
EXTT10=
EXTT11=
EXTT12=
EXTT13=
EXTT14=
EXTT15=
EXTT16=
EXTT17=
EXTT18=
EXTT19=
EXTT20=
EXTT21=
PLAYORDER=
